<?xml version="1.0" encoding="UTF-8"?>
<svg version="1.1" xmlns="http://www.w3.org/2000/svg" width="48" height="48">
<path d="M0 0 C0.66209473 -0.00095673 1.32418945 -0.00191345 2.00634766 -0.00289917 C3.40852961 -0.00358076 4.8107147 -0.00172792 6.21289062 0.00244141 C8.36595713 0.00779004 10.51881502 0.0024958 12.671875 -0.00390625 C14.03125046 -0.00324546 15.3906258 -0.00196429 16.75 0 C18.61785156 0.00169189 18.61785156 0.00169189 20.5234375 0.00341797 C23.375 0.1328125 23.375 0.1328125 24.375 1.1328125 C24.47544341 3.58185919 24.51374416 5.99656147 24.5 8.4453125 C24.50580078 9.46141602 24.50580078 9.46141602 24.51171875 10.49804688 C24.50516123 13.852218 24.41343151 16.92686126 23.375 20.1328125 C24.48875 20.225625 24.48875 20.225625 25.625 20.3203125 C29.45025149 21.45050044 30.44840087 22.63639185 32.375 26.1328125 C33.01924018 31.11970874 33.20698242 34.88483887 30.375 39.1328125 C25.96647919 41.54558403 21.39427078 42.71644864 16.375 42.1328125 C15.385 41.4728125 14.395 40.8128125 13.375 40.1328125 C11.16594059 39.87407523 11.16594059 39.87407523 8.7421875 39.97265625 C7.40994141 39.9890918 7.40994141 39.9890918 6.05078125 40.00585938 C4.66439453 40.03776367 4.66439453 40.03776367 3.25 40.0703125 C1.41413827 40.10459208 -0.42180629 40.13476752 -2.2578125 40.16015625 C-3.07137207 40.17812256 -3.88493164 40.19608887 -4.72314453 40.21459961 C-6.625 40.1328125 -6.625 40.1328125 -7.625 39.1328125 C-7.72603255 36.33287653 -7.76470088 33.55812606 -7.7578125 30.7578125 C-7.75876923 29.91814941 -7.75972595 29.07848633 -7.76071167 28.21337891 C-7.76139348 26.43456955 -7.75953917 24.65575773 -7.75537109 22.87695312 C-7.75002283 20.14447474 -7.75531605 17.41216074 -7.76171875 14.6796875 C-7.76105797 12.9557288 -7.75977681 11.23177021 -7.7578125 9.5078125 C-7.75983673 8.68490723 -7.76186096 7.86200195 -7.76394653 7.01416016 C-7.73365835 -0.26429364 -7.12369236 0.00645262 0 0 Z " fill="#8556FE" transform="translate(15.625,3.8671875)"/>
<path d="M0 0 C1.98 0 3.96 0 6 0 C6 1.98 6 3.96 6 6 C5.34 6 4.68 6 4 6 C4 6.99 4 7.98 4 9 C4.99 8.67 5.98 8.34 7 8 C7.33 5.36 7.66 2.72 8 0 C8.66 0 9.32 0 10 0 C10 2.97 10 5.94 10 9 C12.97 9 15.94 9 19 9 C19 9.99 19 10.98 19 12 C16.03 12 13.06 12 10 12 C10 12.99 10 13.98 10 15 C13.96 15 17.92 15 22 15 C22 15.99 22 16.98 22 18 C18.04 18 14.08 18 10 18 C10 18.99 10 19.98 10 21 C12.31 21 14.62 21 17 21 C16.67 21.99 16.34 22.98 16 24 C14.02 24 12.04 24 10 24 C10 24.99 10 25.98 10 27 C11.65 27 13.3 27 15 27 C15.99 29.97 16.98 32.94 18 36 C16.33388095 36.042721 14.66617115 36.04063832 13 36 C12.67 35.67 12.34 35.34 12 35 C8.04 34.67 4.08 34.34 0 34 C0 22.78 0 11.56 0 0 Z " fill="#DFDBFE" transform="translate(11,7)"/>
<path d="M0 0 C0.66209473 -0.00095673 1.32418945 -0.00191345 2.00634766 -0.00289917 C3.40852961 -0.00358076 4.8107147 -0.00172792 6.21289062 0.00244141 C8.36595713 0.00779004 10.51881502 0.0024958 12.671875 -0.00390625 C14.03125046 -0.00324546 15.3906258 -0.00196429 16.75 0 C18.61785156 0.00169189 18.61785156 0.00169189 20.5234375 0.00341797 C23.375 0.1328125 23.375 0.1328125 24.375 1.1328125 C24.44813567 3.66330652 24.46747527 6.16586087 24.4375 8.6953125 C24.43298828 9.40623047 24.42847656 10.11714844 24.42382812 10.84960938 C24.41200864 12.61071263 24.39407263 14.37177286 24.375 16.1328125 C23.385 16.1328125 22.395 16.1328125 21.375 16.1328125 C21.24479167 14.1796875 21.11458333 12.2265625 20.984375 10.2734375 C20.11690958 7.22618717 18.90320642 6.02896732 16.375 4.1328125 C13.1124658 3.4367897 13.1124658 3.4367897 9.625 3.3828125 C7.86929687 3.29773438 7.86929687 3.29773438 6.078125 3.2109375 C5.18609375 3.18515625 4.2940625 3.159375 3.375 3.1328125 C3.375 5.7728125 3.375 8.4128125 3.375 11.1328125 C2.055 11.4628125 0.735 11.7928125 -0.625 12.1328125 C-0.625 11.1428125 -0.625 10.1528125 -0.625 9.1328125 C0.035 9.1328125 0.695 9.1328125 1.375 9.1328125 C1.375 7.1528125 1.375 5.1728125 1.375 3.1328125 C-0.605 3.1328125 -2.585 3.1328125 -4.625 3.1328125 C-4.625 14.3528125 -4.625 25.5728125 -4.625 37.1328125 C-0.665 37.1328125 3.295 37.1328125 7.375 37.1328125 C7.705 38.1228125 8.035 39.1128125 8.375 40.1328125 C5.89576199 40.15966345 3.4168116 40.17957797 0.9375 40.1953125 C0.23044922 40.20369141 -0.47660156 40.21207031 -1.20507812 40.22070312 C-3.01193559 40.22934838 -4.81887603 40.18501261 -6.625 40.1328125 C-8.46776509 38.29004741 -7.75374411 35.70317491 -7.76394653 33.25146484 C-7.7619223 32.42855957 -7.75989807 31.6056543 -7.7578125 30.7578125 C-7.75876923 29.91814941 -7.75972595 29.07848633 -7.76071167 28.21337891 C-7.76139348 26.43456955 -7.75953917 24.65575773 -7.75537109 22.87695312 C-7.75002283 20.14447474 -7.75531605 17.41216074 -7.76171875 14.6796875 C-7.76105797 12.9557288 -7.75977681 11.23177021 -7.7578125 9.5078125 C-7.75983673 8.68490723 -7.76186096 7.86200195 -7.76394653 7.01416016 C-7.73365835 -0.26429364 -7.12369236 0.00645262 0 0 Z " fill="#8152FD" transform="translate(15.625,3.8671875)"/>
<path d="M0 0 C9.77254826 -0.7701658 9.77254826 -0.7701658 14.1875 2 C16.61956668 6.02548968 16.39315009 8.36082895 16 13 C16.66 13 17.32 13 18 13 C18 14.32 18 15.64 18 17 C16.02 17.33 14.04 17.66 12 18 C12 17.01 12 16.02 12 15 C8.04 15 4.08 15 0 15 C0 14.01 0 13.02 0 12 C2.97 12 5.94 12 9 12 C9 11.01 9 10.02 9 9 C6.03 9 3.06 9 0 9 C0 6.03 0 3.06 0 0 Z " fill="#9996FE" transform="translate(21,7)"/>
<path d="M0 0 C0 2.64 0 5.28 0 8 C1.98 8 3.96 8 6 8 C5.67 7.34 5.34 6.68 5 6 C4.960008 4.00039988 4.95653201 1.99952758 5 0 C8.875 1.75 8.875 1.75 10 4 C10.30442659 8.46492339 9.5883272 11.8306411 8 16 C6 16.8125 6 16.8125 3 17 C-0.51419016 15.34859485 -4.22482201 13.55035599 -6 10 C-6.29325631 6.62755239 -6.340946 4.61694991 -4.6875 1.625 C-3 0 -3 0 0 0 Z " fill="#D0CDFE" transform="translate(35,28)"/>
<path d="M0 0 C1.65 0 3.3 0 5 0 C7 6.75 7 6.75 7 9 C5.02 9 3.04 9 1 9 C0.67 6.03 0.34 3.06 0 0 Z " fill="#B2A5FE" transform="translate(34,27)"/>
<path d="M0 0 C3.63 0 7.26 0 11 0 C11 0.99 11 1.98 11 3 C7.37 3 3.74 3 0 3 C0 2.01 0 1.02 0 0 Z " fill="#8455FE" transform="translate(21,19)"/>
<path d="M0 0 C3.63 0 7.26 0 11 0 C10.67 0.99 10.34 1.98 10 3 C6.37 3 2.74 3 -1 3 C-0.67 2.01 -0.34 1.02 0 0 Z " fill="#8354FE" transform="translate(22,13)"/>
<path d="M0 0 C1.65 0 3.3 0 5 0 C5 1.98 5 3.96 5 6 C3.35 6.33 1.7 6.66 0 7 C0 4.69 0 2.38 0 0 Z " fill="#ACA9FE" transform="translate(21,7)"/>
<path d="M0 0 C3.3 0 6.6 0 10 0 C10 0.99 10 1.98 10 3 C6.7 3 3.4 3 0 3 C0 2.01 0 1.02 0 0 Z " fill="#CAC8FF" transform="translate(23,22)"/>
<path d="M0 0 C0.66 0 1.32 0 2 0 C2 2.64 2 5.28 2 8 C0.68 8.33 -0.64 8.66 -2 9 C-2 8.01 -2 7.02 -2 6 C-1.34 6 -0.68 6 0 6 C0 4.02 0 2.04 0 0 Z " fill="#AB98FE" transform="translate(17,7)"/>
<path d="M0 0 C2.31 0 4.62 0 7 0 C7 0.99 7 1.98 7 3 C4.69 3 2.38 3 0 3 C0 2.01 0 1.02 0 0 Z " fill="#BDBBFF" transform="translate(23,16)"/>
<path d="M0 0 C1.32 0 2.64 0 4 0 C4 2.97 4 5.94 4 9 C3.34 7.68 2.68 6.36 2 5 C1.34 4.34 0.68 3.68 0 3 C0 2.01 0 1.02 0 0 Z " fill="#AAA4FE" transform="translate(30,16)"/>
<path d="M0 0 C0.66 0 1.32 0 2 0 C2 1.32 2 2.64 2 4 C2.99 4 3.98 4 5 4 C5 4.66 5 5.32 5 6 C3.35 6 1.7 6 0 6 C0 4.02 0 2.04 0 0 Z " fill="#8455FE" transform="translate(36,30)"/>
</svg>
